# xmcd CD database file
#
# Track frame offsets:
#	150
#	21848
#	41800
#	65498
#	83738
#	110795
#	135545
#	164885
#	183815
#	214163
#	242315
#	263998
#	285493
#	303355
#
# Disc length: 4286 seconds
#
# Revision: 0
# Processed by: cddbd v1.4PL0 Copyright (c) Steve Scherf et al.
# Submitted via: CDex 1.50
#
DISCID=c710bc0e
DTITLE=Bobby "BW" Wells - Wait A Minute
DYEAR=1994
DGENRE=Blues
TTITLE0=Wait A Minute
TTITLE1=It Was You All The Time
TTITLE2=Sailing
TTITLE3=You're My Best Friend
TTITLE4=Feelin' Fine
TTITLE5=Fish Soup
TTITLE6=Until Next Time
TTITLE7=Just Believe It
TTITLE8=Island Dreams
TTITLE9=Jade
TTITLE10=Special Kinda Lady
TTITLE11=Hey Taxi
TTITLE12=I Really Love You
TTITLE13=The Road Home
EXTD=YEAR: 1994
EXTT0=
EXTT1=
EXTT2=
EXTT3=
EXTT4=
EXTT5=
EXTT6=
EXTT7=
EXTT8=
EXTT9=
EXTT10=
EXTT11=
EXTT12=
EXTT13=
PLAYORDER=
